<?xml version="1.0" encoding="utf-8"?>
<!-- Generator: Adobe Illustrator 25.2.0, SVG Export Plug-In . SVG Version: 6.00 Build 0)  -->
<svg version="1.1" id="Layer_1" xmlns="http://www.w3.org/2000/svg" xmlns:xlink="http://www.w3.org/1999/xlink" x="0px" y="0px"
	 viewBox="0 0 40 40" style="enable-background:new 0 0 40 40;" xml:space="preserve">
<style type="text/css">
	.st0{clip-path:url(#SVGID_2_);}
	.st1{fill:#FFFFFF;}
</style>
<g>
	<g>
		<defs>
			<circle id="SVGID_1_" cx="20" cy="20" r="20"/>
		</defs>
		<clipPath id="SVGID_2_">
			<use xlink:href="#SVGID_1_"  style="overflow:visible;"/>
		</clipPath>
		<g class="st0">
			<defs>
				<rect id="SVGID_3_" x="-1.5" y="-1.5" width="43" height="43"/>
			</defs>
			<clipPath id="SVGID_4_">
				<use xlink:href="#SVGID_3_"  style="overflow:visible;"/>
			</clipPath>
			<g style="clip-path:url(#SVGID_4_);">
				
					<image style="overflow:visible;" width="304" height="303" xlink:href="BE0DDCB6.jpg"  transform="matrix(0.1422 0 0 0.1422 -1.6178 -1.5958)">
				</image>
			</g>
		</g>
	</g>
	<g>
		<g>
			<path class="st1" d="M20,9.7c3.4,0,3.8,0,5.1,0.1c1.2,0.1,1.9,0.3,2.3,0.4c0.6,0.2,1,0.5,1.4,0.9c0.4,0.4,0.7,0.9,0.9,1.4
				c0.2,0.4,0.4,1.1,0.4,2.3c0.1,1.3,0.1,1.7,0.1,5.1s0,3.8-0.1,5.1c-0.1,1.2-0.3,1.9-0.4,2.3c-0.2,0.6-0.5,1-0.9,1.4
				c-0.4,0.4-0.9,0.7-1.4,0.9c-0.4,0.2-1.1,0.4-2.3,0.4c-1.3,0.1-1.7,0.1-5.1,0.1c-3.4,0-3.8,0-5.1-0.1c-1.2-0.1-1.9-0.3-2.3-0.4
				c-0.6-0.2-1-0.5-1.4-0.9c-0.4-0.4-0.7-0.9-0.9-1.4C10,27,9.8,26.3,9.7,25.1c-0.1-1.3-0.1-1.7-0.1-5.1s0-3.8,0.1-5.1
				c0.1-1.2,0.3-1.9,0.4-2.3c0.2-0.6,0.5-1,0.9-1.4c0.4-0.4,0.9-0.7,1.4-0.9c0.4-0.2,1.1-0.4,2.3-0.4C16.2,9.7,16.6,9.7,20,9.7
				 M20,7.4c-3.4,0-3.8,0-5.2,0.1c-1.3,0.1-2.3,0.3-3.1,0.6c-0.8,0.3-1.5,0.8-2.2,1.5c-0.7,0.7-1.1,1.4-1.5,2.2
				c-0.3,0.8-0.5,1.7-0.6,3.1c-0.1,1.3-0.1,1.8-0.1,5.2c0,3.4,0,3.8,0.1,5.2c0.1,1.3,0.3,2.3,0.6,3.1c0.3,0.8,0.8,1.5,1.5,2.2
				c0.7,0.7,1.4,1.1,2.2,1.5c0.8,0.3,1.7,0.5,3.1,0.6c1.3,0.1,1.8,0.1,5.2,0.1c3.4,0,3.8,0,5.2-0.1c1.3-0.1,2.3-0.3,3.1-0.6
				c0.8-0.3,1.5-0.8,2.2-1.5c0.7-0.7,1.1-1.4,1.5-2.2c0.3-0.8,0.5-1.7,0.6-3.1c0.1-1.3,0.1-1.8,0.1-5.2s0-3.8-0.1-5.2
				c-0.1-1.3-0.3-2.3-0.6-3.1c-0.3-0.8-0.8-1.5-1.5-2.2c-0.7-0.7-1.4-1.1-2.2-1.5c-0.8-0.3-1.7-0.5-3.1-0.6
				C23.8,7.4,23.4,7.4,20,7.4L20,7.4z"/>
			<path class="st1" d="M20,13.5c-3.6,0-6.5,2.9-6.5,6.5s2.9,6.5,6.5,6.5c3.6,0,6.5-2.9,6.5-6.5S23.6,13.5,20,13.5z M20,24.2
				c-2.3,0-4.2-1.9-4.2-4.2s1.9-4.2,4.2-4.2s4.2,1.9,4.2,4.2S22.3,24.2,20,24.2z"/>
			<circle class="st1" cx="26.7" cy="13.3" r="1.5"/>
		</g>
	</g>
</g>
</svg>
