<?xml version="1.0" encoding="utf-8"?>
<!-- Generator: Adobe Illustrator 25.2.0, SVG Export Plug-In . SVG Version: 6.00 Build 0)  -->
<svg version="1.1" id="Layer_1" xmlns="http://www.w3.org/2000/svg" xmlns:xlink="http://www.w3.org/1999/xlink" x="0px" y="0px"
	 viewBox="0 0 40 40" style="enable-background:new 0 0 40 40;" xml:space="preserve">
<style type="text/css">
	.st0{fill-rule:evenodd;clip-rule:evenodd;fill:url(#bubble_2_);}
	.st1{fill-rule:evenodd;clip-rule:evenodd;fill:#FFFFFF;}
</style>
<g>
	<g id="logo_1_">
		
			<radialGradient id="bubble_2_" cx="-166.9188" cy="426.6262" r="4.441527e-02" gradientTransform="matrix(800 0 0 -799.9999 133545 341337.3438)" gradientUnits="userSpaceOnUse">
			<stop  offset="0" style="stop-color:#0797FD"/>
			<stop  offset="0.6098" style="stop-color:#9D33FD"/>
			<stop  offset="0.9348" style="stop-color:#FD5280"/>
			<stop  offset="1" style="stop-color:#FD7061"/>
		</radialGradient>
		<path id="bubble_1_" class="st0" d="M20,4C10.8,4,3.7,10.7,3.7,19.8c0,4.8,1.9,8.9,5.1,11.7c0.3,0.2,0.4,0.6,0.4,0.9l0.1,2.9
			c0,0.9,1,1.5,1.8,1.2l3.2-1.4c0.3-0.1,0.6-0.1,0.9-0.1c1.5,0.4,3.1,0.6,4.7,0.6c9.2,0,16.3-6.7,16.3-15.8S29.2,4,20,4z"/>
		<path id="bolt_1_" class="st1" d="M10.2,24.4l4.8-7.6c0.8-1.2,2.4-1.5,3.5-0.7l3.8,2.9c0.3,0.3,0.8,0.3,1.2,0l5.1-3.9
			c0.7-0.5,1.6,0.3,1.1,1L25,23.8c-0.8,1.2-2.4,1.5-3.5,0.7l-3.8-2.9c-0.3-0.3-0.8-0.3-1.2,0l-5.1,3.9C10.6,26,9.7,25.2,10.2,24.4z"
			/>
	</g>
</g>
</svg>
