<?xml version="1.0" encoding="utf-8"?>
<!-- Generator: Adobe Illustrator 25.2.0, SVG Export Plug-In . SVG Version: 6.00 Build 0)  -->
<svg version="1.1" id="Layer_1" xmlns="http://www.w3.org/2000/svg" xmlns:xlink="http://www.w3.org/1999/xlink" x="0px" y="0px"
	 viewBox="0 0 40 40" style="enable-background:new 0 0 40 40;" xml:space="preserve">
<style type="text/css">
	.st0{fill:#FFFFFF;}
	.st1{fill-rule:evenodd;clip-rule:evenodd;fill:url(#bubble_2_);}
	.st2{fill-rule:evenodd;clip-rule:evenodd;fill:#FFFFFF;}
</style>
<g>
	<path class="st0" d="M34.1,40H5.9C2.6,40,0,37.4,0,34.1V5.9C0,2.6,2.6,0,5.9,0h28.2C37.4,0,40,2.6,40,5.9v28.2
		C40,37.4,37.4,40,34.1,40z"/>
</g>
<radialGradient id="bubble_2_" cx="-166.9179" cy="426.6277" r="4.116242e-02" gradientTransform="matrix(800 0 0 -799.9999 133545 341337.3438)" gradientUnits="userSpaceOnUse">
	<stop  offset="0" style="stop-color:#0797FD"/>
	<stop  offset="0.6098" style="stop-color:#9D33FD"/>
	<stop  offset="0.9348" style="stop-color:#FD5280"/>
	<stop  offset="1" style="stop-color:#FD7061"/>
</radialGradient>
<path id="bubble_1_" class="st1" d="M20,5.2c-8.5,0-15.1,6.2-15.1,14.7c0,4.4,1.8,8.2,4.7,10.8c0.2,0.2,0.4,0.5,0.4,0.9l0.1,2.7
	c0,0.9,0.9,1.4,1.7,1.1l3-1.3c0.3-0.1,0.5-0.1,0.8-0.1c1.4,0.4,2.8,0.6,4.4,0.6c8.5,0,15.1-6.2,15.1-14.7S28.5,5.2,20,5.2z"/>
<path id="bolt_1_" class="st2" d="M10.9,24.1l4.4-7c0.7-1.1,2.2-1.4,3.3-0.6l3.5,2.6c0.3,0.2,0.8,0.2,1.1,0l4.8-3.6
	c0.6-0.5,1.5,0.3,1,1l-4.4,7c-0.7,1.1-2.2,1.4-3.3,0.6l-3.5-2.6c-0.3-0.2-0.8-0.2-1.1,0L12,25.1C11.3,25.6,10.5,24.8,10.9,24.1z"/>
</svg>
