<?xml version="1.0" encoding="utf-8"?>
<!-- Generator: Adobe Illustrator 25.2.0, SVG Export Plug-In . SVG Version: 6.00 Build 0)  -->
<svg version="1.1" id="Layer_1" xmlns="http://www.w3.org/2000/svg" xmlns:xlink="http://www.w3.org/1999/xlink" x="0px" y="0px"
	 viewBox="0 0 40 40" style="enable-background:new 0 0 40 40;" xml:space="preserve">
<style type="text/css">
	.st0{fill:url(#SVGID_1_);}
	.st1{fill:#C1DAEA;}
	.st2{fill:#9CC6D9;}
	.st3{fill:#FFFFFF;}
</style>
<g>
	<g>
		<linearGradient id="SVGID_1_" gradientUnits="userSpaceOnUse" x1="20" y1="40" x2="20" y2="-9.094947e-13">
			<stop  offset="0" style="stop-color:#0093D4"/>
			<stop  offset="1" style="stop-color:#00B0E5"/>
		</linearGradient>
		<circle class="st0" cx="20" cy="20" r="20"/>
		<path class="st1" d="M13.5,21.5l2.4,6.6c0,0,0.3,0.6,0.6,0.6c0.3,0,5-4.9,5-4.9l5.3-10.1l-13.2,6.2L13.5,21.5z"/>
		<path class="st2" d="M16.7,23.1L16.2,28c0,0-0.2,1.5,1.3,0c1.5-1.5,2.9-2.6,2.9-2.6L16.7,23.1z"/>
		<g>
			<path class="st3" d="M13.6,21.7l-4.9-1.6c0,0-0.6-0.2-0.4-0.8c0-0.1,0.1-0.2,0.3-0.4c1.1-0.8,20-7.6,20-7.6s0.5-0.2,0.9-0.1
				c0.1,0.1,0.2,0.1,0.3,0.3c0,0.1,0,0.3,0,0.4c0,0.1,0,0.2,0,0.4c-0.1,1.9-3.6,15.7-3.6,15.7s-0.2,0.8-0.9,0.8c-0.3,0-0.6,0-1-0.4
				c-1.5-1.2-6.5-4.6-7.6-5.4c-0.1,0-0.1-0.1-0.1-0.1c0-0.1,0.1-0.2,0.1-0.2s8.7-7.8,9-8.6c0-0.1,0-0.1-0.1-0.1
				C25,14.6,14.9,21,13.8,21.7C13.8,21.7,13.6,21.7,13.6,21.7z"/>
		</g>
	</g>
</g>
</svg>
