<?xml version="1.0" encoding="utf-8"?>
<!-- Generator: Adobe Illustrator 25.2.0, SVG Export Plug-In . SVG Version: 6.00 Build 0)  -->
<svg version="1.1" id="Layer_1" xmlns="http://www.w3.org/2000/svg" xmlns:xlink="http://www.w3.org/1999/xlink" x="0px" y="0px"
	 viewBox="0 0 40 40" style="enable-background:new 0 0 40 40;" xml:space="preserve">
<style type="text/css">
	.st0{fill:#FFFFFF;}
	.st1{fill:#EC1655;}
	.st2{fill:#0CBAC6;}
</style>
<g>
	<circle cx="20" cy="20" r="20"/>
	<g>
		<g>
			<path class="st0" d="M14.7,28C14.7,28,14.7,28.1,14.7,28c0.3,0.2,0.5,0.4,0.7,0.6c0.7,0.5,1.4,0.8,2.2,0.9c2,0.1,3.8-1.4,4-3.4
				c0-0.1,0-0.2,0-0.3c0-6,0-12,0-17.9c0-0.4,0-0.4,0.4-0.4c0.9,0,1.8,0,2.7,0c0.1,0,0.2,0,0.3,0c0,0,0,0,0,0c0,0,0.1,0.1,0.1,0.2
				c0.3,1.6,1.2,2.9,2.5,3.9c0.1,0.1,0.2,0.1,0.2,0.2c0.1,0,0.1,0.1,0.2,0.1c0.2,0.1,0.4,0.3,0.6,0.5c0.7,0.6,1.6,1,2.5,1.3
				c0.1,0,0.2,0,0.2,0.1c0,0,0,0,0,0c0.1,0.1,0,0.1,0,0.2c0,1.1,0,2.1,0,3.2c0,0.2,0,0.3-0.3,0.3c-0.8,0-1.5-0.1-2.3-0.3
				c-1.3-0.3-2.5-0.8-3.6-1.5c-0.1,0-0.1-0.1-0.2-0.1c-0.1,0,0,0.1,0,0.2c0,3,0,5.9,0,8.9c0,2.1-0.7,3.9-2,5.5
				c-1.4,1.7-3.3,2.7-5.5,2.9c-1.7,0.2-3.3-0.1-4.8-0.9c-0.2-0.1-0.5-0.3-0.7-0.4c-0.1-0.1-0.1-0.1-0.2-0.2c-0.5-0.4-0.9-1-1.2-1.6
				c-0.5-0.9-0.9-1.8-1-2.9c-0.1-0.6-0.1-1.2-0.1-1.8c0.1-1.9,0.7-3.6,2-5.1c1-1.2,2.3-2.1,3.8-2.6c0.6-0.2,1.3-0.3,2-0.4
				c0.1,0,0.2,0,0.4,0c0.1,0,0.1,0,0.2,0c0,0,0,0,0,0c0,0.1,0,0.1,0,0.2c0,1.1,0,2.1,0,3.2c0,0,0,0.1,0,0.1c0,0.1-0.1,0.1-0.2,0.1
				c-0.3-0.1-0.6-0.1-0.9-0.1c-0.5,0-0.9,0-1.4,0.2c-1.5,0.5-2.4,1.6-2.6,3.1c-0.2,1.5,0.4,2.8,1.7,3.6C14.5,27.9,14.6,27.9,14.7,28
				z"/>
			<path class="st1" d="M11.9,31.8c0.1,0,0.1,0,0.1,0.1c1,0.6,2,1,3.1,1.1c0.6,0.1,1.1,0.1,1.7,0.1c1.9-0.1,3.6-0.7,5-1.9
				c1.4-1.2,2.3-2.6,2.8-4.4c0.1-0.6,0.2-1.1,0.3-1.7c0-0.3,0-0.7,0-1c0-2.8,0-5.7,0-8.5c0-0.1,0-0.1,0-0.2c0.1,0,0.1,0,0.1,0.1
				c1,0.7,2.1,1.2,3.3,1.5c0.6,0.2,1.3,0.3,2,0.4c0.3,0,0.6,0,0.8,0c0.1,0,0.1,0,0.1-0.1c0-0.1,0-0.3,0-0.4c0-1,0-1.9,0-2.9
				c0-0.1,0-0.1,0-0.2c0.3,0,0.5,0.1,0.8,0.1c0.2,0,0.3,0,0.5,0c0.1,0,0.1,0,0.1,0.1c0,0,0,0.1,0,0.1c0,1.4,0,2.8,0,4.2
				c0,0,0,0.1,0,0.1c0,0.1,0,0.1-0.1,0.1c-0.4,0-0.9,0-1.3-0.1c-0.9-0.1-1.7-0.3-2.6-0.7c-0.8-0.3-1.5-0.7-2.2-1.2
				c0,0-0.1-0.1-0.2-0.1c0,0.1,0,0.1,0,0.2c0,3,0,6,0,9.1c0,1.6-0.4,3.1-1.3,4.5c-1,1.7-2.5,2.8-4.3,3.5c-1.1,0.4-2.3,0.6-3.4,0.5
				c-2-0.1-3.7-0.9-5.2-2.3C12,31.8,11.9,31.8,11.9,31.8z"/>
			<path class="st2" d="M24.9,7.5c-0.1,0-0.1,0-0.2,0c-1,0-1.9,0-2.9,0c-0.2,0-0.2,0-0.2,0.2c0,6,0,11.9,0,17.9c0,0.4,0,0.8-0.2,1.2
				c-0.5,1.4-1.4,2.3-2.8,2.6c-1.5,0.3-2.8-0.1-3.9-1.3c0,0,0,0,0-0.1c0.3,0.1,0.6,0.2,0.9,0.3c1,0.2,1.9,0,2.8-0.5
				c1-0.6,1.6-1.5,1.8-2.7c0-0.2,0-0.4,0-0.7c0-6,0-11.9,0-17.9c0-0.3,0-0.2,0.2-0.2c1.4,0,2.7,0,4.1,0c0,0,0.1,0,0.1,0
				c0.1,0,0.1,0,0.1,0.1C24.9,6.9,24.9,7.2,24.9,7.5z"/>
			<path class="st2" d="M17.6,17.3c-0.8,0-1.7,0.2-2.5,0.4c-1.2,0.4-2.2,1-3.1,1.8c-1.2,1.1-2,2.4-2.4,3.9c-0.2,0.5-0.2,1.1-0.3,1.7
				c0,0.3,0,0.7,0,1c0.1,0.9,0.2,1.9,0.6,2.7c0.4,1,1,1.9,1.7,2.6c0,0,0,0,0,0.1c-0.2-0.1-0.3-0.2-0.4-0.3c-1.4-1.1-2.3-2.4-2.9-4.1
				C8.2,26.6,8.1,26,8,25.4c0-0.4,0-0.9,0-1.3c0.1-1,0.3-2,0.7-2.9c0.4-1,1-1.8,1.8-2.6c0.9-0.9,1.9-1.5,3.1-1.9
				c0.7-0.3,1.5-0.4,2.2-0.5c0.6,0,1.1,0,1.7,0c0.1,0,0.1,0,0.1,0.1C17.6,16.7,17.6,17,17.6,17.3z"/>
			<path class="st1" d="M14.7,28c-0.3-0.2-0.6-0.4-0.9-0.6c-0.7-0.6-1.1-1.4-1.2-2.3c-0.2-1.9,1-3.6,2.7-4.1c0.7-0.2,1.4-0.2,2.2,0
				c0,0,0.1,0,0.1,0c0-0.1,0-0.1,0-0.2c0-1.1,0-2.2,0-3.2c0-0.1,0-0.1,0-0.2c0.4,0,0.8,0,1.2,0.1c0.1,0,0.1,0,0.1,0.1
				c0,0,0,0.1,0,0.1c0,1.4,0,2.9,0,4.3c0,0.1,0,0.1,0,0.2c-0.2,0-0.4-0.1-0.6-0.1c-1.1-0.2-2.1,0.1-3,0.8c-0.8,0.6-1.2,1.4-1.4,2.4
				c-0.2,1,0,2,0.6,2.8C14.6,28,14.6,28,14.7,28z"/>
			<path class="st1" d="M27.8,11.8c-0.4-0.2-0.8-0.6-1.1-0.9c-0.9-0.9-1.5-2-1.7-3.3c0,0,0,0,0,0c0.4,0,0.8,0,1.2,0
				c0.1,0,0.1,0,0.1,0.1c0,0,0,0.1,0,0.1c0,1.1,0.3,2.1,0.8,3c0.2,0.3,0.4,0.6,0.7,0.9C27.8,11.7,27.8,11.7,27.8,11.8z"/>
			<path class="st2" d="M31.3,13.8c-1.1-0.2-2.1-0.7-2.9-1.5c-0.1-0.1-0.3-0.2-0.4-0.4c0,0,0.1,0,0.1,0c0.7,0.4,1.4,0.6,2.2,0.8
				c0.3,0,0.6,0.1,0.9,0.1c0.1,0,0.1,0,0.1,0.1C31.3,13.2,31.3,13.5,31.3,13.8z"/>
		</g>
	</g>
</g>
</svg>
