<?xml version="1.0" encoding="utf-8"?>
<!-- Generator: Adobe Illustrator 25.2.0, SVG Export Plug-In . SVG Version: 6.00 Build 0)  -->
<svg version="1.1" id="Layer_1" xmlns="http://www.w3.org/2000/svg" xmlns:xlink="http://www.w3.org/1999/xlink" x="0px" y="0px"
	 viewBox="0 0 40 40" style="enable-background:new 0 0 40 40;" xml:space="preserve">
<style type="text/css">
	.st0{fill:#1D99EE;}
	.st1{fill:#F3F7F7;}
</style>
<g>
	<path class="st0" d="M34.1,40H5.9C2.6,40,0,37.4,0,34.1V5.9C0,2.6,2.6,0,5.9,0h28.2C37.4,0,40,2.6,40,5.9v28.2
		C40,37.4,37.4,40,34.1,40z"/>
</g>
<path class="st1" d="M28.6,11.3c0,0-1.4-1.6-3.7-1.6c-2.8,0.1-5.4,1.8-5.1,6.2c0,0-4.2,1.3-10.8-5c0,0-2.1,3.4,1.6,6.7
	c0,0-1,0.3-2.5-0.5c0,0-0.8,2.9,4.1,5.1c0,0-1.6,0.5-2.4,0c0,0,0.4,3.1,4.7,3.8c0,0-2.2,2.2-7.5,2.1c0,0,10.9,5.6,18.5-1.6
	c5.4-5.1,4.7-12,4.7-12s1.6-0.5,2.5-2.2c0,0-1.8,0.6-2.8,0.5c0,0,2-1.2,2.1-2.7C32.1,10.2,30.4,11.4,28.6,11.3z"/>
</svg>
