<?xml version="1.0" encoding="utf-8"?>
<!-- Generator: Adobe Illustrator 25.2.0, SVG Export Plug-In . SVG Version: 6.00 Build 0)  -->
<svg version="1.1" id="Layer_1" xmlns="http://www.w3.org/2000/svg" xmlns:xlink="http://www.w3.org/1999/xlink" x="0px" y="0px"
	 viewBox="0 0 40 40" style="enable-background:new 0 0 40 40;" xml:space="preserve">
<style type="text/css">
	.st0{fill-rule:evenodd;clip-rule:evenodd;fill:#1D99EE;}
	.st1{fill:#FFFFFF;}
</style>
<g>
	<circle class="st0" cx="20" cy="20" r="20"/>
	<g>
		<g>
			<path class="st1" d="M16,31.5c9.8,0,15.1-8.1,15.1-15.1c0-0.2,0-0.5,0-0.7c1-0.7,1.9-1.7,2.6-2.7c-1,0.4-2,0.7-3,0.8
				c1.1-0.7,1.9-1.7,2.3-2.9c-1,0.6-2.2,1.1-3.4,1.3c-1-1-2.3-1.7-3.9-1.7c-2.9,0-5.3,2.4-5.3,5.3c0,0.4,0,0.8,0.1,1.2
				c-4.4-0.2-8.3-2.3-10.9-5.5c-0.5,0.8-0.7,1.7-0.7,2.7c0,1.8,0.9,3.5,2.4,4.4c-0.9,0-1.7-0.3-2.4-0.7c0,0,0,0,0,0.1
				c0,2.6,1.8,4.7,4.3,5.2c-0.4,0.1-0.9,0.2-1.4,0.2c-0.3,0-0.7,0-1-0.1c0.7,2.1,2.6,3.6,5,3.7c-1.8,1.4-4.1,2.3-6.6,2.3
				c-0.4,0-0.9,0-1.3-0.1C10.2,30.6,13,31.5,16,31.5"/>
		</g>
	</g>
</g>
</svg>
