<?xml version="1.0" encoding="utf-8"?>
<!-- Generator: Adobe Illustrator 25.2.0, SVG Export Plug-In . SVG Version: 6.00 Build 0)  -->
<svg version="1.1" id="Layer_1" xmlns="http://www.w3.org/2000/svg" xmlns:xlink="http://www.w3.org/1999/xlink" x="0px" y="0px"
	 viewBox="0 0 40 40" style="enable-background:new 0 0 40 40;" xml:space="preserve">
<style type="text/css">
	.st0{fill:#FD0000;}
	.st1{fill:#FFFFFF;}
</style>
<g>
	<circle class="st0" cx="20" cy="20" r="20"/>
	<path class="st1" d="M32.8,13.6c-0.3-1.1-1.2-2.1-2.4-2.4C28.3,10.7,20,10.7,20,10.7s-8.3,0-10.4,0.6c-1.1,0.3-2.1,1.2-2.4,2.4
		C6.7,15.7,6.7,20,6.7,20s0,4.3,0.6,6.4c0.3,1.1,1.2,2.1,2.4,2.4c2.1,0.6,10.4,0.6,10.4,0.6s8.3,0,10.4-0.6c1.1-0.3,2.1-1.2,2.4-2.4
		c0.6-2.1,0.6-6.4,0.6-6.4S33.3,15.7,32.8,13.6z M17.3,24v-8l6.9,4L17.3,24z"/>
</g>
</svg>
